<svg xmlns="http://www.w3.org/2000/svg" xmlns:xlink="http://www.w3.org/1999/xlink" viewBox="0 0 110.81 119.11">
  <defs>
    <linearGradient id="linear-gradient" x1="55.4" y1="119.11" x2="55.4" gradientUnits="userSpaceOnUse">
      <stop offset="0" stop-color="#fff"/>
      <stop offset="1" stop-color="#1b1464"/>
    </linearGradient>
  </defs>
  <title>WeatherAppBg</title>
  <g id="Layer_2" data-name="Layer 2">
    <g id="Layer_1-2" data-name="Layer 1">
      <g>
        <rect width="110.81" height="119.11" fill="url(#linear-gradient)"/>
        <circle cx="55.4" cy="59.55" r="21.51" fill="#ff0"/>
        <path d="M56.55,56.31c-.9,2.44-1.82,4.87-2.71,7.31-1.2,3.29-2.38,6.57-3.58,9.86-.16.43-.31.87-.49,1.29-.66,1.56-1.57,2.88-3.52,2.47-1.79-.38-2.31-1.84-2.38-3.45-.15-4-.23-7.91-.36-11.87-.12-3.49-.23-7-.39-10.47-.07-1.44-.4-2.84-2-3.31a3.09,3.09,0,0,0-3.64,1.75,12.53,12.53,0,0,0-1.76,4.69c-.24,2.45,1.2,3.74,3.68,3.86,1.27.07,2.62,0,2.9,1.67a3.49,3.49,0,0,1-1.84,4c-2.89,1.6-6.57.34-8.46-2.9-2.61-4.48-1.81-11.06,1.9-15.56a9.79,9.79,0,0,1,5.89-3.72c3.76-.66,6.65.89,7.58,4.59a44.31,44.31,0,0,1,.92,7.82c.18,2.76.16,5.54.24,8.31,0,.11.11.22.31.59C50,60,51.08,57,52.16,54s2.08-5.84,3.14-8.75a10,10,0,0,1,.93-1.95,2.92,2.92,0,0,1,3.39-1.43,2.82,2.82,0,0,1,2.14,3c0,4.09-.07,8.19-.1,12.28,0,2.11,0,4.21,0,6.94.56-1,.88-1.53,1.13-2.08,2.55-5.64,5.15-11.27,7.61-17,.9-2.08,2.17-3.23,4.52-3a17,17,0,0,0,2.37,0c1.48,0,2.83.1,3,2s-.83,3.92-2.59,3.7c-3.07-.38-3.71,1.58-4.63,3.65-3.3,7.4-6.66,14.78-10,22.16-1.37,3-2.53,4-4.26,3.61s-2.35-1.88-2.28-5.14c.09-4.55.25-9.1.38-13.65,0-.69,0-1.38,0-2.07Z" fill="#fff"/>
      </g>
    </g>
  </g>
</svg>
