<svg id="Layer_1" data-name="Layer 1" xmlns="http://www.w3.org/2000/svg" viewBox="0 0 128 128">
  <title>WeatherApp-Logo</title>
  <circle cx="64" cy="64" r="54.28" fill="#ff0"/>
  <path d="M66.79,58.37Q63.37,67.6,60,76.82c-3,8.28-6,16.57-9,24.86-.4,1.09-.78,2.2-1.23,3.27-1.67,3.93-4,7.27-8.9,6.23-4.5-1-5.83-4.65-6-8.72-.39-10-.6-20-.93-29.94-.28-8.81-.56-17.62-1-26.43-.17-3.61-1-7.16-5-8.34s-7.36,1.16-9.18,4.42c-2.05,3.65-4,7.76-4.43,11.82-.61,6.2,3,9.44,9.29,9.76,3.19.16,6.59-.15,7.32,4.19S30.22,75.8,26.19,78c-7.29,4-16.56.85-21.33-7.34-6.6-11.3-4.57-27.9,4.79-39.24,3.92-4.75,8.6-8.29,14.85-9.39,9.5-1.68,16.78,2.25,19.13,11.59C45.24,40,45.51,46.77,46,53.38c.46,7,.41,14,.6,20.95,0,.28.28.55.79,1.49,2.91-8,5.66-15.61,8.39-23.19C58.37,45.28,61,37.9,63.65,30.57A24.52,24.52,0,0,1,66,25.64c2-3.07,4.88-4.6,8.55-3.6s5.39,3.86,5.39,7.52c0,10.32-.17,20.64-.24,31,0,5.32,0,10.64,0,17.52,1.42-2.58,2.23-3.87,2.85-5.25C89,58.56,95.53,44.36,101.74,30c2.27-5.25,5.48-8.13,11.4-7.48a46.19,46.19,0,0,0,6,0c3.73-.07,7.14.24,7.61,5.08.51,5.13-2.09,9.89-6.54,9.33-7.74-1-9.35,4-11.67,9.2C100.22,64.85,91.73,83.46,83.3,102.1c-3.46,7.64-6.37,10.1-10.76,9.1-4.11-.93-5.91-4.75-5.75-13,.23-11.49.65-23,1-34.44,0-1.74,0-3.48,0-5.22Z" fill="#fff"/>
</svg>
