<svg xmlns="http://www.w3.org/2000/svg" xmlns:xlink="http://www.w3.org/1999/xlink" viewBox="0 0 100 100">
  <defs>
    <linearGradient id="linear-gradient" x1="50" y1="100" x2="50" gradientUnits="userSpaceOnUse">
      <stop offset="0" stop-color="#fff"/>
      <stop offset="1" stop-color="#1b1464"/>
    </linearGradient>
  </defs>
  <title>Asset 5</title>
  <g id="Layer_2" data-name="Layer 2">
    <g id="Layer_1-2" data-name="Layer 1">
      <g>
        <rect width="100" height="100" fill="url(#linear-gradient)"/>
        <circle cx="50" cy="50" r="21.51" fill="#ff0"/>
        <path d="M51.14,46.76c-.9,2.44-1.81,4.87-2.7,7.31q-1.8,4.92-3.58,9.85c-.16.44-.31.87-.49,1.3-.66,1.56-1.57,2.88-3.53,2.47-1.78-.38-2.31-1.85-2.37-3.46-.16-4-.24-7.91-.37-11.86-.11-3.49-.22-7-.39-10.48-.06-1.43-.39-2.84-2-3.3a3.07,3.07,0,0,0-3.64,1.75A12.57,12.57,0,0,0,30.32,45c-.24,2.46,1.19,3.74,3.68,3.87,1.26.06,2.61-.06,2.9,1.66a3.5,3.5,0,0,1-1.85,4c-2.89,1.6-6.56.34-8.45-2.91C24,47.16,24.79,40.58,28.5,36.09a9.69,9.69,0,0,1,5.88-3.72C38.15,31.7,41,33.26,42,37a44.3,44.3,0,0,1,.91,7.82c.19,2.76.16,5.54.24,8.3,0,.12.11.22.31.59,1.16-3.18,2.25-6.18,3.33-9.19s2.07-5.83,3.14-8.74a9.43,9.43,0,0,1,.93-2,2.9,2.9,0,0,1,3.39-1.43,2.83,2.83,0,0,1,2.14,3c0,4.09-.07,8.18-.1,12.27,0,2.11,0,4.22,0,7,.56-1,.88-1.54,1.13-2.08,2.55-5.65,5.14-11.27,7.6-17,.9-2.08,2.18-3.22,4.52-3a21,21,0,0,0,2.38,0c1.48,0,2.83.09,3,2s-.83,3.92-2.6,3.7c-3.06-.39-3.7,1.58-4.62,3.64-3.3,7.41-6.66,14.78-10,22.17-1.37,3-2.53,4-4.27,3.61s-2.34-1.88-2.28-5.15c.09-4.55.26-9.09.39-13.64,0-.69,0-1.38,0-2.07Z" fill="#fff"/>
      </g>
    </g>
  </g>
</svg>
