<svg xmlns="http://www.w3.org/2000/svg" viewBox="0 0 388.8 374.11">
  <title>SP-full-logo</title>
  <g id="Layer_2" data-name="Layer 2">
    <g id="Saurav_Priyadarshi" data-name="Saurav Priyadarshi">
      <g>
        <text transform="translate(158.44 357.47) scale(0.83 1)" font-size="61.41" fill="#fff" font-family="DroidSans, Droid Sans">riyadarshi</text>
        <text transform="translate(254.74 292.73) scale(0.83 1)" font-size="61.41" fill="#fff" font-family="DroidSans, Droid Sans">au<tspan x="68.76" y="0" letter-spacing="-0.01em">r</tspan><tspan x="92.65" y="0">av</tspan></text>
        <g>
          <path d="M91.38.07h2.81c42.25,0,84.51-.2,126.77.07,28.2.18,56.23,2.47,83.63,9.74,18.06,4.8,35.26,11.54,50.35,22.89,19.46,14.64,30.07,34.29,33,58.28,2.7,22.13-.86,43.15-11.75,62.68-9.07,16.29-22.7,28.09-38.67,37.27-18.29,10.51-38.14,16.82-58.69,21a313.17,313.17,0,0,1-58.66,6c-21,.28-41.95.22-62.92.32h-3V357.22H91.38Zm63,179.69h2.79c12.29,0,24.58,0,36.86,0,18.07.08,36.08-.59,54-3.12,13.54-1.91,26.8-4.89,39.25-10.76,15.31-7.22,27-18,32.55-34.4a74.52,74.52,0,0,0,1.75-41.41,52,52,0,0,0-18.16-28.95,74.37,74.37,0,0,0-22.32-12.29c-19.83-7.15-40.51-9.31-61.37-9.72S177.8,39,156.82,39c-.79,0-1.58.08-2.41.12Z" fill="#35d400"/>
          <path d="M.11,263.65c12.72,2.63,25.19,5.43,37.76,7.74a410.43,410.43,0,0,0,55.07,6.29,308.64,308.64,0,0,0,52-1.52c13.57-1.65,26.93-4.25,39-11.17,6.08-3.48,11.28-7.91,14.51-14.3a30,30,0,0,0-8.14-36.86c-8-6.23-17.21-9.93-26.62-13.22-18.81-6.57-38.18-11.12-57.53-15.74-19.15-4.58-38.11-9.78-56.11-17.94-10.15-4.6-19.72-10.13-27.84-17.88A52.72,52.72,0,0,1,5.87,115.73C3.62,95.64,12.14,80.79,28,69.41c12.09-8.71,25.8-13.8,40.09-17.48,19.31-5,39-7,58.89-7.42a483.58,483.58,0,0,1,50.94,1.57,394.93,394.93,0,0,1,68.94,11.84c.36.09.7.24,1.23.42-.37.58-.68,1.14-1.05,1.65-5.82,8-11.68,16-17.44,24a2.37,2.37,0,0,1-3,1.06,388.46,388.46,0,0,0-55.15-10.11c-21.78-2.35-43.62-3.22-65.42-.13-10.2,1.45-20.11,4-29.26,8.91-5.34,2.86-10.15,6.37-13.64,11.44-7.14,10.4-5.43,26.64,3.76,36.08,6.38,6.54,14.36,10.44,22.66,13.78,15.18,6.11,31,10,46.87,13.83,22,5.29,44,10.35,65.28,18,12.15,4.39,23.86,9.7,34.11,17.75S253.26,213,255,226.44c2.14,16.27-2,30.56-13.24,42.65-9.66,10.37-21.67,17.11-34.68,22.24-15.83,6.23-32.37,9.61-49.18,11.84a378.42,378.42,0,0,1-52.44,2.95,539.56,539.56,0,0,1-69-4.41,234.65,234.65,0,0,1-34.71-7C.64,294.32,0,294,0,292.6c.06-9.44,0-18.88,0-28.32A4.44,4.44,0,0,1,.11,263.65Z" fill="#35d400"/>
        </g>
        <path d="M252.41,216.11c-3.28-8.53-9.06-15.55-16.6-21.48-8.21-6.45-17.37-11.13-26.94-15q-7.4.17-14.81.13c-12.28-.06-24.57,0-36.86,0h-2.79V163.19c-6-1.47-12-2.9-18-4.35-15.21-3.66-30.42-7.43-45-13.13v35.44c4.92,1.31,9.85,2.53,14.81,3.72,19.35,4.62,38.72,9.17,57.53,15.74,9.41,3.29,18.67,7,26.62,13.22a28.83,28.83,0,0,1,4.48,4.42c8.45,0,16.9-.09,25.35-.2C231,217.9,241.71,217.28,252.41,216.11Z" fill="#fff"/>
      </g>
    </g>
  </g>
</svg>
